<svg width="184" height="57" viewBox="0 0 184 57" fill="none" xmlns="http://www.w3.org/2000/svg">
<rect y="0.62085" width="184" height="56" rx="5" fill="black"/>
<g clip-path="url(#clip0_68_302)">
<path d="M49.1857 43.337C47.4437 45.0257 45.5417 44.759 43.7109 43.9591C41.7733 43.1414 39.9958 43.1059 37.9516 43.9591C35.3919 45.0612 34.041 44.7412 32.5123 43.337C23.8378 34.3959 25.1177 20.7798 34.9653 20.2821C37.365 20.4065 39.0359 21.5975 40.4402 21.7041C42.5377 21.2775 44.5463 20.051 46.786 20.211C49.4701 20.4243 51.4966 21.4908 52.8297 23.4106C47.2838 26.7346 48.5991 34.0404 53.6829 36.0846C52.6697 38.7509 51.3543 41.3994 49.168 43.3547L49.1857 43.337ZM40.2624 20.1755C39.9958 16.2115 43.2132 12.9408 46.9105 12.6208C47.426 17.2069 42.751 20.6198 40.2624 20.1755Z" fill="white"/>
</g>
<path d="M76.1543 23.2969L71.9062 35.6211H69.3379L74.6895 21.4023H76.3301L76.1543 23.2969ZM79.709 35.6211L75.4512 23.2969L75.2656 21.4023H76.916L82.2871 35.6211H79.709ZM79.5039 30.3477V32.291H71.7695V30.3477H79.5039ZM85.832 27.0859V39.6836H83.4785V25.0547H85.6465L85.832 27.0859ZM92.7168 30.2402V30.4453C92.7168 31.2135 92.6257 31.9264 92.4434 32.584C92.2676 33.235 92.0039 33.8047 91.6523 34.293C91.3073 34.7747 90.8809 35.1491 90.373 35.416C89.8652 35.6829 89.2793 35.8164 88.6152 35.8164C87.9577 35.8164 87.3815 35.696 86.8867 35.4551C86.3984 35.2077 85.985 34.8594 85.6465 34.4102C85.3079 33.9609 85.0345 33.4336 84.8262 32.8281C84.6243 32.2161 84.4811 31.5456 84.3965 30.8164V30.0254C84.4811 29.2507 84.6243 28.5475 84.8262 27.916C85.0345 27.2845 85.3079 26.7409 85.6465 26.2852C85.985 25.8294 86.3984 25.4779 86.8867 25.2305C87.375 24.9831 87.9447 24.8594 88.5957 24.8594C89.2598 24.8594 89.849 24.9896 90.3633 25.25C90.8776 25.5039 91.3105 25.8685 91.6621 26.3438C92.0137 26.8125 92.2773 27.3789 92.4531 28.043C92.6289 28.7005 92.7168 29.4329 92.7168 30.2402ZM90.3633 30.4453V30.2402C90.3633 29.752 90.3177 29.2995 90.2266 28.8828C90.1354 28.4596 89.9922 28.0885 89.7969 27.7695C89.6016 27.4505 89.3509 27.2031 89.0449 27.0273C88.7454 26.8451 88.3841 26.7539 87.9609 26.7539C87.5443 26.7539 87.1862 26.8255 86.8867 26.9688C86.5872 27.1055 86.3366 27.2975 86.1348 27.5449C85.9329 27.7923 85.7767 28.082 85.666 28.4141C85.5553 28.7396 85.4772 29.0944 85.4316 29.4785V31.373C85.5098 31.8418 85.6432 32.2715 85.832 32.6621C86.0208 33.0527 86.2878 33.3652 86.6328 33.5996C86.9844 33.8275 87.4336 33.9414 87.9805 33.9414C88.4036 33.9414 88.765 33.8503 89.0645 33.668C89.3639 33.4857 89.6081 33.235 89.7969 32.916C89.9922 32.5905 90.1354 32.2161 90.2266 31.793C90.3177 31.3698 90.3633 30.9206 90.3633 30.4453ZM97.082 27.0859V39.6836H94.7285V25.0547H96.8965L97.082 27.0859ZM103.967 30.2402V30.4453C103.967 31.2135 103.876 31.9264 103.693 32.584C103.518 33.235 103.254 33.8047 102.902 34.293C102.557 34.7747 102.131 35.1491 101.623 35.416C101.115 35.6829 100.529 35.8164 99.8652 35.8164C99.2077 35.8164 98.6315 35.696 98.1367 35.4551C97.6484 35.2077 97.235 34.8594 96.8965 34.4102C96.5579 33.9609 96.2845 33.4336 96.0762 32.8281C95.8743 32.2161 95.7311 31.5456 95.6465 30.8164V30.0254C95.7311 29.2507 95.8743 28.5475 96.0762 27.916C96.2845 27.2845 96.5579 26.7409 96.8965 26.2852C97.235 25.8294 97.6484 25.4779 98.1367 25.2305C98.625 24.9831 99.1947 24.8594 99.8457 24.8594C100.51 24.8594 101.099 24.9896 101.613 25.25C102.128 25.5039 102.561 25.8685 102.912 26.3438C103.264 26.8125 103.527 27.3789 103.703 28.043C103.879 28.7005 103.967 29.4329 103.967 30.2402ZM101.613 30.4453V30.2402C101.613 29.752 101.568 29.2995 101.477 28.8828C101.385 28.4596 101.242 28.0885 101.047 27.7695C100.852 27.4505 100.601 27.2031 100.295 27.0273C99.9954 26.8451 99.6341 26.7539 99.2109 26.7539C98.7943 26.7539 98.4362 26.8255 98.1367 26.9688C97.8372 27.1055 97.5866 27.2975 97.3848 27.5449C97.1829 27.7923 97.0267 28.082 96.916 28.4141C96.8053 28.7396 96.7272 29.0944 96.6816 29.4785V31.373C96.7598 31.8418 96.8932 32.2715 97.082 32.6621C97.2708 33.0527 97.5378 33.3652 97.8828 33.5996C98.2344 33.8275 98.6836 33.9414 99.2305 33.9414C99.6536 33.9414 100.015 33.8503 100.314 33.668C100.614 33.4857 100.858 33.235 101.047 32.916C101.242 32.5905 101.385 32.2161 101.477 31.793C101.568 31.3698 101.613 30.9206 101.613 30.4453ZM118.664 31.959C118.664 31.666 118.618 31.4056 118.527 31.1777C118.443 30.9499 118.29 30.7415 118.068 30.5527C117.847 30.3639 117.535 30.1816 117.131 30.0059C116.734 29.8236 116.226 29.638 115.607 29.4492C114.93 29.2409 114.305 29.0098 113.732 28.7559C113.166 28.4954 112.671 28.196 112.248 27.8574C111.825 27.5124 111.496 27.1185 111.262 26.6758C111.027 26.2266 110.91 25.709 110.91 25.123C110.91 24.5436 111.031 24.0163 111.271 23.541C111.519 23.0658 111.867 22.6556 112.316 22.3105C112.772 21.959 113.309 21.6888 113.928 21.5C114.546 21.3047 115.23 21.207 115.979 21.207C117.033 21.207 117.941 21.4023 118.703 21.793C119.471 22.1836 120.061 22.7077 120.471 23.3652C120.887 24.0228 121.096 24.7487 121.096 25.543H118.664C118.664 25.0742 118.563 24.6608 118.361 24.3027C118.166 23.9382 117.867 23.6517 117.463 23.4434C117.066 23.235 116.561 23.1309 115.949 23.1309C115.37 23.1309 114.888 23.2188 114.504 23.3945C114.12 23.5703 113.833 23.8079 113.645 24.1074C113.456 24.4069 113.361 24.7454 113.361 25.123C113.361 25.39 113.423 25.6341 113.547 25.8555C113.671 26.0703 113.859 26.2721 114.113 26.4609C114.367 26.6432 114.686 26.8158 115.07 26.9785C115.454 27.1413 115.907 27.2975 116.428 27.4473C117.215 27.6816 117.902 27.9421 118.488 28.2285C119.074 28.5085 119.562 28.8275 119.953 29.1855C120.344 29.5436 120.637 29.9505 120.832 30.4062C121.027 30.8555 121.125 31.3665 121.125 31.9395C121.125 32.5384 121.005 33.0788 120.764 33.5605C120.523 34.0358 120.178 34.4427 119.729 34.7812C119.286 35.1133 118.752 35.3704 118.127 35.5527C117.508 35.7285 116.818 35.8164 116.057 35.8164C115.373 35.8164 114.699 35.7253 114.035 35.543C113.378 35.3607 112.779 35.084 112.238 34.7129C111.698 34.3353 111.268 33.8665 110.949 33.3066C110.63 32.7402 110.471 32.0794 110.471 31.3242H112.922C112.922 31.7865 113 32.1803 113.156 32.5059C113.319 32.8314 113.544 33.0983 113.83 33.3066C114.117 33.5085 114.449 33.6582 114.826 33.7559C115.21 33.8535 115.62 33.9023 116.057 33.9023C116.63 33.9023 117.108 33.821 117.492 33.6582C117.883 33.4954 118.176 33.2676 118.371 32.9746C118.566 32.6816 118.664 32.3431 118.664 31.959ZM127.902 25.0547V26.7734H121.945V25.0547H127.902ZM123.664 22.4668H126.018V32.7012C126.018 33.0267 126.063 33.2773 126.154 33.4531C126.252 33.6224 126.385 33.7363 126.555 33.7949C126.724 33.8535 126.923 33.8828 127.15 33.8828C127.313 33.8828 127.469 33.873 127.619 33.8535C127.769 33.834 127.889 33.8145 127.98 33.7949L127.99 35.5918C127.795 35.6504 127.567 35.7025 127.307 35.748C127.053 35.7936 126.76 35.8164 126.428 35.8164C125.887 35.8164 125.409 35.722 124.992 35.5332C124.576 35.3379 124.25 35.0221 124.016 34.5859C123.781 34.1497 123.664 33.5703 123.664 32.8477V22.4668ZM129.035 30.4551V30.2305C129.035 29.4688 129.146 28.7624 129.367 28.1113C129.589 27.4538 129.908 26.8841 130.324 26.4023C130.747 25.9141 131.262 25.5365 131.867 25.2695C132.479 24.9961 133.169 24.8594 133.938 24.8594C134.712 24.8594 135.402 24.9961 136.008 25.2695C136.62 25.5365 137.137 25.9141 137.561 26.4023C137.984 26.8841 138.306 27.4538 138.527 28.1113C138.749 28.7624 138.859 29.4688 138.859 30.2305V30.4551C138.859 31.2168 138.749 31.9232 138.527 32.5742C138.306 33.2253 137.984 33.7949 137.561 34.2832C137.137 34.765 136.623 35.1426 136.018 35.416C135.412 35.6829 134.725 35.8164 133.957 35.8164C133.182 35.8164 132.489 35.6829 131.877 35.416C131.271 35.1426 130.757 34.765 130.334 34.2832C129.911 33.7949 129.589 33.2253 129.367 32.5742C129.146 31.9232 129.035 31.2168 129.035 30.4551ZM131.389 30.2305V30.4551C131.389 30.9303 131.438 31.3796 131.535 31.8027C131.633 32.2259 131.786 32.597 131.994 32.916C132.202 33.235 132.469 33.4857 132.795 33.668C133.12 33.8503 133.508 33.9414 133.957 33.9414C134.393 33.9414 134.771 33.8503 135.09 33.668C135.415 33.4857 135.682 33.235 135.891 32.916C136.099 32.597 136.252 32.2259 136.35 31.8027C136.454 31.3796 136.506 30.9303 136.506 30.4551V30.2305C136.506 29.7617 136.454 29.319 136.35 28.9023C136.252 28.4792 136.096 28.1048 135.881 27.7793C135.673 27.4538 135.406 27.1999 135.08 27.0176C134.761 26.8288 134.38 26.7344 133.938 26.7344C133.495 26.7344 133.111 26.8288 132.785 27.0176C132.466 27.1999 132.202 27.4538 131.994 27.7793C131.786 28.1048 131.633 28.4792 131.535 28.9023C131.438 29.319 131.389 29.7617 131.389 30.2305ZM143.195 27.0664V35.6211H140.842V25.0547H143.088L143.195 27.0664ZM146.428 24.9863L146.408 27.1738C146.265 27.1478 146.109 27.1283 145.939 27.1152C145.777 27.1022 145.614 27.0957 145.451 27.0957C145.048 27.0957 144.693 27.1543 144.387 27.2715C144.081 27.3822 143.824 27.5449 143.615 27.7598C143.413 27.9681 143.257 28.222 143.146 28.5215C143.036 28.821 142.971 29.1562 142.951 29.5273L142.414 29.5664C142.414 28.9023 142.479 28.2871 142.609 27.7207C142.74 27.1543 142.935 26.6562 143.195 26.2266C143.462 25.7969 143.794 25.4616 144.191 25.2207C144.595 24.9798 145.061 24.8594 145.588 24.8594C145.731 24.8594 145.884 24.8724 146.047 24.8984C146.216 24.9245 146.343 24.9538 146.428 24.9863ZM152.365 35.8164C151.584 35.8164 150.878 35.6895 150.246 35.4355C149.621 35.1751 149.087 34.8138 148.645 34.3516C148.208 33.8893 147.873 33.3457 147.639 32.7207C147.404 32.0957 147.287 31.4219 147.287 30.6992V30.3086C147.287 29.4818 147.408 28.7331 147.648 28.0625C147.889 27.3919 148.225 26.819 148.654 26.3438C149.084 25.862 149.592 25.4941 150.178 25.2402C150.764 24.9863 151.398 24.8594 152.082 24.8594C152.837 24.8594 153.498 24.9863 154.064 25.2402C154.631 25.4941 155.1 25.8522 155.471 26.3145C155.848 26.7702 156.128 27.3138 156.311 27.9453C156.499 28.5768 156.594 29.2734 156.594 30.0352V31.041H148.43V29.3516H154.27V29.166C154.257 28.7428 154.172 28.3457 154.016 27.9746C153.866 27.6035 153.635 27.304 153.322 27.0762C153.01 26.8483 152.593 26.7344 152.072 26.7344C151.682 26.7344 151.333 26.819 151.027 26.9883C150.728 27.151 150.477 27.3887 150.275 27.7012C150.074 28.0137 149.917 28.3913 149.807 28.834C149.702 29.2702 149.65 29.7617 149.65 30.3086V30.6992C149.65 31.1615 149.712 31.5911 149.836 31.9883C149.966 32.3789 150.155 32.7207 150.402 33.0137C150.65 33.3066 150.949 33.5378 151.301 33.707C151.652 33.8698 152.053 33.9512 152.502 33.9512C153.068 33.9512 153.573 33.8372 154.016 33.6094C154.458 33.3815 154.842 33.0592 155.168 32.6426L156.408 33.8438C156.18 34.1758 155.884 34.4948 155.52 34.8008C155.155 35.1003 154.709 35.3444 154.182 35.5332C153.661 35.722 153.055 35.8164 152.365 35.8164Z" fill="white"/>
<defs>
<clipPath id="clip0_68_302">
<rect width="28" height="32" fill="white" transform="translate(26.1719 12.6208)"/>
</clipPath>
</defs>
</svg>
