<svg width="184" height="56" viewBox="0 0 184 56" fill="none" xmlns="http://www.w3.org/2000/svg">
<rect width="184" height="56" rx="5" fill="black"/>
<g clip-path="url(#clip0_68_161)">
<path d="M30.1925 27.2549L16.4023 41.2925C16.5572 41.8257 16.8355 42.3175 17.2159 42.7302C17.5964 43.1429 18.0689 43.4656 18.5974 43.6737C19.1259 43.8818 19.6964 43.9697 20.2652 43.9307C20.834 43.8918 21.3862 43.727 21.8794 43.4489L37.3959 34.8627L30.1925 27.2549Z" fill="#EA4335"/>
<path d="M44.1337 24.8699L37.4239 21.1357L29.8711 27.5753L37.4546 34.8437L44.1134 31.1496C44.7032 30.8495 45.1973 30.3982 45.5421 29.8447C45.8868 29.2913 46.0691 28.6566 46.0691 28.0097C46.0691 27.3627 45.8868 26.7281 45.5421 26.1746C45.1973 25.6212 44.7032 25.1699 44.1134 24.8698L44.1337 24.8699Z" fill="#FBBC04"/>
<path d="M16.4007 14.6562C16.3174 14.9557 16.2759 15.2646 16.2774 15.5748V40.375C16.2782 40.685 16.3197 40.9937 16.4007 41.2936L30.6636 27.6155L16.4007 14.6562Z" fill="#4285F4"/>
<path d="M30.2952 27.9745L37.4267 21.1354L21.9308 12.5092C21.3478 12.1774 20.6847 12.0018 20.0091 12C18.3324 11.9968 16.8583 13.0781 16.4023 14.6458L30.2952 27.9745Z" fill="#34A853"/>
</g>
<path d="M73.4337 27.7344V33.1641C73.2319 33.431 72.9161 33.724 72.4865 34.043C72.0633 34.3555 71.5001 34.6257 70.797 34.8535C70.0939 35.0814 69.2182 35.1953 68.17 35.1953C67.2781 35.1953 66.4611 35.0456 65.7189 34.7461C64.9767 34.4401 64.3354 33.9941 63.795 33.4082C63.2612 32.8223 62.8478 32.1094 62.5548 31.2695C62.2618 30.4232 62.1154 29.4596 62.1154 28.3789V27.3926C62.1154 26.3184 62.2488 25.3613 62.5157 24.5215C62.7892 23.6751 63.1798 22.959 63.6876 22.373C64.1954 21.7871 64.8074 21.3444 65.5236 21.0449C66.2462 20.7389 67.0633 20.5859 67.9747 20.5859C69.1401 20.5859 70.1036 20.7812 70.8654 21.1719C71.6336 21.556 72.226 22.0898 72.6427 22.7734C73.0594 23.457 73.323 24.2383 73.4337 25.1172H71.0314C70.9532 24.6224 70.8003 24.1797 70.5724 23.7891C70.351 23.3984 70.032 23.0924 69.6154 22.8711C69.2052 22.6432 68.6713 22.5293 68.0138 22.5293C67.4474 22.5293 66.9493 22.6367 66.5197 22.8516C66.09 23.0664 65.7319 23.3822 65.4454 23.7988C65.1655 24.2155 64.9539 24.7233 64.8107 25.3223C64.6674 25.9212 64.5958 26.6048 64.5958 27.373V28.3789C64.5958 29.1602 64.6772 29.8535 64.84 30.459C65.0092 31.0645 65.2501 31.5755 65.5626 31.9922C65.8816 32.4089 66.269 32.7246 66.7247 32.9395C67.1805 33.1478 67.6948 33.252 68.2677 33.252C68.8276 33.252 69.2866 33.2064 69.6447 33.1152C70.0027 33.0176 70.2859 32.9036 70.4943 32.7734C70.7091 32.6367 70.8751 32.5065 70.9923 32.3828V29.5605H68.0333V27.7344H73.4337ZM75.465 29.834V29.6094C75.465 28.8477 75.5756 28.1413 75.797 27.4902C76.0184 26.8327 76.3374 26.263 76.754 25.7812C77.1772 25.293 77.6915 24.9154 78.297 24.6484C78.909 24.375 79.5991 24.2383 80.3673 24.2383C81.142 24.2383 81.8322 24.375 82.4376 24.6484C83.0496 24.9154 83.5672 25.293 83.9904 25.7812C84.4135 26.263 84.7358 26.8327 84.9572 27.4902C85.1785 28.1413 85.2892 28.8477 85.2892 29.6094V29.834C85.2892 30.5957 85.1785 31.3021 84.9572 31.9531C84.7358 32.6042 84.4135 33.1738 83.9904 33.6621C83.5672 34.1439 83.0529 34.5215 82.4474 34.7949C81.8419 35.0618 81.1551 35.1953 80.3868 35.1953C79.6121 35.1953 78.9187 35.0618 78.3068 34.7949C77.7013 34.5215 77.187 34.1439 76.7638 33.6621C76.3406 33.1738 76.0184 32.6042 75.797 31.9531C75.5756 31.3021 75.465 30.5957 75.465 29.834ZM77.8185 29.6094V29.834C77.8185 30.3092 77.8673 30.7585 77.965 31.1816C78.0626 31.6048 78.2156 31.9759 78.424 32.2949C78.6323 32.6139 78.8992 32.8646 79.2247 33.0469C79.5503 33.2292 79.9376 33.3203 80.3868 33.3203C80.823 33.3203 81.2006 33.2292 81.5197 33.0469C81.8452 32.8646 82.1121 32.6139 82.3204 32.2949C82.5288 31.9759 82.6818 31.6048 82.7794 31.1816C82.8836 30.7585 82.9357 30.3092 82.9357 29.834V29.6094C82.9357 29.1406 82.8836 28.6979 82.7794 28.2812C82.6818 27.8581 82.5255 27.4837 82.3107 27.1582C82.1023 26.8327 81.8354 26.5788 81.5099 26.3965C81.1909 26.2077 80.81 26.1133 80.3673 26.1133C79.9246 26.1133 79.5405 26.2077 79.215 26.3965C78.896 26.5788 78.6323 26.8327 78.424 27.1582C78.2156 27.4837 78.0626 27.8581 77.965 28.2812C77.8673 28.6979 77.8185 29.1406 77.8185 29.6094ZM86.8126 29.834V29.6094C86.8126 28.8477 86.9233 28.1413 87.1447 27.4902C87.366 26.8327 87.685 26.263 88.1017 25.7812C88.5249 25.293 89.0392 24.9154 89.6447 24.6484C90.2566 24.375 90.9467 24.2383 91.715 24.2383C92.4897 24.2383 93.1798 24.375 93.7853 24.6484C94.3973 24.9154 94.9148 25.293 95.338 25.7812C95.7612 26.263 96.0835 26.8327 96.3048 27.4902C96.5262 28.1413 96.6368 28.8477 96.6368 29.6094V29.834C96.6368 30.5957 96.5262 31.3021 96.3048 31.9531C96.0835 32.6042 95.7612 33.1738 95.338 33.6621C94.9148 34.1439 94.4005 34.5215 93.795 34.7949C93.1896 35.0618 92.5027 35.1953 91.7345 35.1953C90.9598 35.1953 90.2664 35.0618 89.6544 34.7949C89.049 34.5215 88.5346 34.1439 88.1115 33.6621C87.6883 33.1738 87.366 32.6042 87.1447 31.9531C86.9233 31.3021 86.8126 30.5957 86.8126 29.834ZM89.1661 29.6094V29.834C89.1661 30.3092 89.215 30.7585 89.3126 31.1816C89.4103 31.6048 89.5633 31.9759 89.7716 32.2949C89.9799 32.6139 90.2469 32.8646 90.5724 33.0469C90.8979 33.2292 91.2853 33.3203 91.7345 33.3203C92.1707 33.3203 92.5483 33.2292 92.8673 33.0469C93.1928 32.8646 93.4598 32.6139 93.6681 32.2949C93.8764 31.9759 94.0294 31.6048 94.1271 31.1816C94.2312 30.7585 94.2833 30.3092 94.2833 29.834V29.6094C94.2833 29.1406 94.2312 28.6979 94.1271 28.2812C94.0294 27.8581 93.8732 27.4837 93.6583 27.1582C93.45 26.8327 93.1831 26.5788 92.8575 26.3965C92.5385 26.2077 92.1577 26.1133 91.715 26.1133C91.2723 26.1133 90.8881 26.2077 90.5626 26.3965C90.2436 26.5788 89.9799 26.8327 89.7716 27.1582C89.5633 27.4837 89.4103 27.8581 89.3126 28.2812C89.215 28.6979 89.1661 29.1406 89.1661 29.6094ZM105.377 24.4336H107.516V34.707C107.516 35.6576 107.314 36.4648 106.91 37.1289C106.507 37.793 105.943 38.2975 105.221 38.6426C104.498 38.9941 103.662 39.1699 102.711 39.1699C102.307 39.1699 101.858 39.1113 101.363 38.9941C100.875 38.877 100.4 38.6882 99.9376 38.4277C99.4819 38.1738 99.101 37.8385 98.795 37.4219L99.8986 36.0352C100.276 36.4844 100.693 36.8132 101.149 37.0215C101.604 37.2298 102.083 37.334 102.584 37.334C103.124 37.334 103.583 37.2331 103.961 37.0312C104.345 36.8359 104.641 36.5462 104.85 36.1621C105.058 35.778 105.162 35.3092 105.162 34.7559V26.8262L105.377 24.4336ZM98.1993 29.834V29.6289C98.1993 28.8281 98.297 28.099 98.4923 27.4414C98.6876 26.7773 98.9676 26.2077 99.3322 25.7324C99.6967 25.2507 100.139 24.8828 100.66 24.6289C101.181 24.3685 101.77 24.2383 102.428 24.2383C103.111 24.2383 103.694 24.362 104.176 24.6094C104.664 24.8568 105.071 25.2116 105.397 25.6738C105.722 26.1296 105.976 26.6764 106.158 27.3145C106.347 27.946 106.487 28.6491 106.578 29.4238V30.0781C106.494 30.8333 106.35 31.5234 106.149 32.1484C105.947 32.7734 105.68 33.3138 105.348 33.7695C105.016 34.2253 104.606 34.5768 104.117 34.8242C103.636 35.0716 103.066 35.1953 102.408 35.1953C101.764 35.1953 101.181 35.0618 100.66 34.7949C100.146 34.528 99.7032 34.1536 99.3322 33.6719C98.9676 33.1901 98.6876 32.6237 98.4923 31.9727C98.297 31.3151 98.1993 30.6022 98.1993 29.834ZM100.553 29.6289V29.834C100.553 30.3158 100.598 30.765 100.69 31.1816C100.787 31.5983 100.934 31.9661 101.129 32.2852C101.331 32.5977 101.585 32.8451 101.891 33.0273C102.203 33.2031 102.571 33.291 102.994 33.291C103.548 33.291 104 33.1738 104.352 32.9395C104.71 32.7051 104.983 32.3893 105.172 31.9922C105.367 31.5885 105.504 31.1393 105.582 30.6445V28.877C105.543 28.4928 105.462 28.1348 105.338 27.8027C105.221 27.4707 105.061 27.181 104.859 26.9336C104.658 26.6797 104.404 26.4844 104.098 26.3477C103.792 26.2044 103.43 26.1328 103.014 26.1328C102.591 26.1328 102.223 26.224 101.91 26.4062C101.598 26.5885 101.341 26.8392 101.139 27.1582C100.943 27.4772 100.797 27.8483 100.699 28.2715C100.602 28.6947 100.553 29.1471 100.553 29.6289ZM112.477 20V35H110.113V20H112.477ZM119.713 35.1953C118.932 35.1953 118.225 35.0684 117.594 34.8145C116.969 34.554 116.435 34.1927 115.992 33.7305C115.556 33.2682 115.221 32.7246 114.986 32.0996C114.752 31.4746 114.635 30.8008 114.635 30.0781V29.6875C114.635 28.8607 114.755 28.112 114.996 27.4414C115.237 26.7708 115.572 26.1979 116.002 25.7227C116.432 25.2409 116.94 24.873 117.526 24.6191C118.111 24.3652 118.746 24.2383 119.43 24.2383C120.185 24.2383 120.846 24.3652 121.412 24.6191C121.979 24.873 122.447 25.2311 122.818 25.6934C123.196 26.1491 123.476 26.6927 123.658 27.3242C123.847 27.9557 123.942 28.6523 123.942 29.4141V30.4199H115.777V28.7305H121.617V28.5449C121.604 28.1217 121.52 27.7246 121.363 27.3535C121.214 26.9824 120.983 26.6829 120.67 26.4551C120.358 26.2272 119.941 26.1133 119.42 26.1133C119.029 26.1133 118.681 26.1979 118.375 26.3672C118.076 26.5299 117.825 26.7676 117.623 27.0801C117.421 27.3926 117.265 27.7702 117.154 28.2129C117.05 28.6491 116.998 29.1406 116.998 29.6875V30.0781C116.998 30.5404 117.06 30.9701 117.184 31.3672C117.314 31.7578 117.503 32.0996 117.75 32.3926C117.998 32.6855 118.297 32.9167 118.649 33.0859C119 33.2487 119.401 33.3301 119.85 33.3301C120.416 33.3301 120.921 33.2161 121.363 32.9883C121.806 32.7604 122.19 32.4382 122.516 32.0215L123.756 33.2227C123.528 33.5547 123.232 33.8737 122.867 34.1797C122.503 34.4792 122.057 34.7233 121.529 34.9121C121.009 35.1009 120.403 35.1953 119.713 35.1953ZM136.393 29.6973H132.692V27.7539H136.393C137.037 27.7539 137.558 27.6497 137.955 27.4414C138.352 27.2331 138.642 26.9466 138.824 26.582C139.013 26.2109 139.108 25.7878 139.108 25.3125C139.108 24.8633 139.013 24.4434 138.824 24.0527C138.642 23.6556 138.352 23.3366 137.955 23.0957C137.558 22.8548 137.037 22.7344 136.393 22.7344H133.443V35H130.992V20.7812H136.393C137.493 20.7812 138.427 20.9766 139.195 21.3672C139.97 21.7513 140.559 22.2852 140.963 22.9688C141.367 23.6458 141.568 24.4206 141.568 25.293C141.568 26.2109 141.367 26.9987 140.963 27.6562C140.559 28.3138 139.97 28.8184 139.195 29.1699C138.427 29.5215 137.493 29.6973 136.393 29.6973ZM146.051 20V35H143.688V20H146.051ZM154.586 32.8809V27.8418C154.586 27.4642 154.518 27.1387 154.381 26.8652C154.244 26.5918 154.036 26.3802 153.756 26.2305C153.483 26.0807 153.137 26.0059 152.721 26.0059C152.337 26.0059 152.005 26.071 151.725 26.2012C151.445 26.3314 151.227 26.5072 151.07 26.7285C150.914 26.9499 150.836 27.2005 150.836 27.4805H148.492C148.492 27.0638 148.593 26.6602 148.795 26.2695C148.997 25.8789 149.29 25.5306 149.674 25.2246C150.058 24.9186 150.517 24.6777 151.051 24.502C151.585 24.3262 152.184 24.2383 152.848 24.2383C153.642 24.2383 154.345 24.3717 154.957 24.6387C155.576 24.9056 156.061 25.3092 156.412 25.8496C156.77 26.3835 156.949 27.054 156.949 27.8613V32.5586C156.949 33.0404 156.982 33.4733 157.047 33.8574C157.119 34.235 157.22 34.5638 157.35 34.8438V35H154.938C154.827 34.7461 154.739 34.4238 154.674 34.0332C154.615 33.6361 154.586 33.252 154.586 32.8809ZM154.928 28.5742L154.947 30.0293H153.258C152.822 30.0293 152.438 30.0716 152.106 30.1562C151.774 30.2344 151.497 30.3516 151.276 30.5078C151.054 30.6641 150.888 30.8529 150.777 31.0742C150.667 31.2956 150.611 31.5462 150.611 31.8262C150.611 32.1061 150.677 32.3633 150.807 32.5977C150.937 32.8255 151.126 33.0046 151.373 33.1348C151.627 33.265 151.933 33.3301 152.291 33.3301C152.773 33.3301 153.193 33.2324 153.551 33.0371C153.915 32.8353 154.202 32.5911 154.41 32.3047C154.619 32.0117 154.729 31.735 154.742 31.4746L155.504 32.5195C155.426 32.7865 155.292 33.0729 155.104 33.3789C154.915 33.6849 154.667 33.9779 154.361 34.2578C154.062 34.5312 153.701 34.7559 153.277 34.9316C152.861 35.1074 152.379 35.1953 151.832 35.1953C151.142 35.1953 150.527 35.0586 149.986 34.7852C149.446 34.5052 149.023 34.1309 148.717 33.6621C148.411 33.1868 148.258 32.6497 148.258 32.0508C148.258 31.4909 148.362 30.9961 148.57 30.5664C148.785 30.1302 149.098 29.7656 149.508 29.4727C149.925 29.1797 150.432 28.9583 151.031 28.8086C151.63 28.6523 152.314 28.5742 153.082 28.5742H154.928ZM162.32 33.8477L165.192 24.4336H167.711L163.473 36.6113C163.375 36.8717 163.248 37.1549 163.092 37.4609C162.936 37.7669 162.731 38.0566 162.477 38.3301C162.229 38.61 161.92 38.8346 161.549 39.0039C161.178 39.1797 160.729 39.2676 160.201 39.2676C159.993 39.2676 159.791 39.248 159.596 39.209C159.407 39.1764 159.228 39.1406 159.059 39.1016L159.049 37.3047C159.114 37.3112 159.192 37.3177 159.283 37.3242C159.381 37.3307 159.459 37.334 159.518 37.334C159.908 37.334 160.234 37.2852 160.494 37.1875C160.755 37.0964 160.966 36.9466 161.129 36.7383C161.298 36.5299 161.442 36.25 161.559 35.8984L162.32 33.8477ZM160.699 24.4336L163.209 32.3438L163.629 34.8242L161.998 35.2441L158.16 24.4336H160.699Z" fill="white"/>
<defs>
<clipPath id="clip0_68_161">
<rect width="29.7931" height="32" fill="white" transform="translate(16.2773 12)"/>
</clipPath>
</defs>
</svg>
