<svg width="57" height="57" viewBox="0 0 57 57" fill="none" xmlns="http://www.w3.org/2000/svg">
<rect x="0.205505" y="0.0249023" width="56" height="56" rx="28" fill="#27AAE1"/>
<path d="M23.2134 22.2046C24.354 22.2046 25.354 22.478 26.2134 23.0249C27.8696 24.1187 28.6978 26.0327 28.6978 28.7671C28.6978 30.4077 28.3228 31.7983 27.5728 32.939C26.5571 34.4858 25.0649 35.2593 23.0962 35.2593C21.8306 35.2593 20.7368 34.9155 19.8149 34.228C18.2837 33.0562 17.5181 31.2046 17.5181 28.6733C17.5181 27.0327 17.9009 25.6421 18.6665 24.5015C19.7134 22.9702 21.229 22.2046 23.2134 22.2046ZM23.1665 34.6265C23.604 34.6265 23.9868 34.5171 24.3149 34.2983C25.2681 33.6421 25.7446 31.7593 25.7446 28.6499C25.7446 27.1812 25.6353 26.0015 25.4165 25.1108C25.0571 23.5952 24.2993 22.8374 23.1431 22.8374C22.7837 22.8374 22.4634 22.9077 22.1821 23.0483C21.0415 23.6108 20.4712 25.5171 20.4712 28.7671C20.4712 30.3765 20.5962 31.6343 20.8462 32.5405C21.2212 33.9312 21.9946 34.6265 23.1665 34.6265ZM34.979 22.439H36.7134V34.2046L38.7524 34.4155C38.8149 34.4155 38.8774 34.4233 38.9399 34.439C39.2681 34.5015 39.4321 34.6968 39.4321 35.0249H30.9243V34.4155L33.9712 34.2046V24.1265L30.5024 26.2593L30.0806 25.603L34.979 22.439Z" fill="white"/>
</svg>
