<svg width="57" height="57" viewBox="0 0 57 57" fill="none" xmlns="http://www.w3.org/2000/svg">
<rect x="0.205505" y="0.0249023" width="56" height="56" rx="28" fill="#27AAE1"/>
<path d="M23.1157 22.2046C24.2563 22.2046 25.2563 22.478 26.1157 23.0249C27.772 24.1187 28.6001 26.0327 28.6001 28.7671C28.6001 30.4077 28.2251 31.7983 27.4751 32.939C26.4595 34.4858 24.9673 35.2593 22.9985 35.2593C21.7329 35.2593 20.6392 34.9155 19.7173 34.228C18.186 33.0562 17.4204 31.2046 17.4204 28.6733C17.4204 27.0327 17.8032 25.6421 18.5688 24.5015C19.6157 22.9702 21.1313 22.2046 23.1157 22.2046ZM23.0688 34.6265C23.5063 34.6265 23.8892 34.5171 24.2173 34.2983C25.1704 33.6421 25.647 31.7593 25.647 28.6499C25.647 27.1812 25.5376 26.0015 25.3188 25.1108C24.9595 23.5952 24.2017 22.8374 23.0454 22.8374C22.686 22.8374 22.3657 22.9077 22.0845 23.0483C20.9438 23.6108 20.3735 25.5171 20.3735 28.7671C20.3735 30.3765 20.4985 31.6343 20.7485 32.5405C21.1235 33.9312 21.897 34.6265 23.0688 34.6265ZM31.6001 32.9155H36.9673C37.2954 32.9155 37.5532 32.8999 37.7407 32.8687C38.1626 32.7749 38.4751 32.4468 38.6782 31.8843L39.0767 30.7593H39.5923L39.5688 35.0249H30.2173V34.4155C30.2173 33.7905 30.3345 33.2202 30.5688 32.7046C30.897 31.9858 31.6079 31.2827 32.7017 30.5952C33.8423 29.8765 34.5063 29.4468 34.6938 29.3062C35.9282 28.353 36.5454 27.0718 36.5454 25.4624C36.5454 25.1499 36.5142 24.8452 36.4517 24.5483C36.2017 23.4077 35.5376 22.8374 34.4595 22.8374C34.022 22.8374 33.686 22.9468 33.4517 23.1655C33.186 23.3999 33.022 23.9312 32.9595 24.7593C32.9438 25.1343 32.9204 25.4077 32.8892 25.5796C32.7329 26.2983 32.2798 26.6577 31.5298 26.6577C31.3892 26.6577 31.2485 26.6343 31.1079 26.5874C30.5454 26.3999 30.2642 25.9233 30.2642 25.1577C30.2642 24.4858 30.5063 23.9077 30.9907 23.4233C31.8032 22.6108 33.022 22.2046 34.647 22.2046C35.4438 22.2046 36.1782 22.314 36.8501 22.5327C38.5063 23.064 39.3345 24.0952 39.3345 25.6265C39.3345 26.5327 38.9438 27.3765 38.1626 28.1577C37.5376 28.7671 36.3579 29.5171 34.6235 30.4077C34.0298 30.7046 33.6001 30.9233 33.3345 31.064C32.1782 31.7202 31.6001 32.3374 31.6001 32.9155Z" fill="white"/>
</svg>
