<svg width="57" height="57" viewBox="0 0 57 57" fill="none" xmlns="http://www.w3.org/2000/svg">
<rect x="0.205505" y="0.0249023" width="56" height="56" rx="28" fill="#27AAE1"/>
<path d="M22.1353 22.2046C23.2759 22.2046 24.2759 22.478 25.1353 23.0249C26.7915 24.1187 27.6196 26.0327 27.6196 28.7671C27.6196 30.4077 27.2446 31.7983 26.4946 32.939C25.479 34.4858 23.9868 35.2593 22.0181 35.2593C20.7524 35.2593 19.6587 34.9155 18.7368 34.228C17.2056 33.0562 16.4399 31.2046 16.4399 28.6733C16.4399 27.0327 16.8228 25.6421 17.5884 24.5015C18.6353 22.9702 20.1509 22.2046 22.1353 22.2046ZM22.0884 34.6265C22.5259 34.6265 22.9087 34.5171 23.2368 34.2983C24.1899 33.6421 24.6665 31.7593 24.6665 28.6499C24.6665 27.1812 24.5571 26.0015 24.3384 25.1108C23.979 23.5952 23.2212 22.8374 22.0649 22.8374C21.7056 22.8374 21.3853 22.9077 21.104 23.0483C19.9634 23.6108 19.3931 25.5171 19.3931 28.7671C19.3931 30.3765 19.5181 31.6343 19.7681 32.5405C20.1431 33.9312 20.9165 34.6265 22.0884 34.6265ZM39.2915 23.0249L33.9478 28.6968C34.4165 28.5874 34.9243 28.5327 35.4712 28.5327C36.5493 28.5327 37.4634 28.7671 38.2134 29.2358C39.2915 29.9233 39.8306 30.9233 39.8306 32.2358C39.8306 33.2202 39.5181 34.1108 38.8931 34.9077C37.8306 36.2358 36.2368 36.8999 34.1118 36.8999C33.1587 36.8999 32.2993 36.7593 31.5337 36.478C30.1431 35.9468 29.4478 35.0952 29.4478 33.9233C29.4478 33.7827 29.4634 33.6421 29.4946 33.5015C29.6509 32.8608 30.0962 32.5405 30.8306 32.5405C31.1899 32.5405 31.479 32.6265 31.6978 32.7983C31.9478 33.0171 32.104 33.5171 32.1665 34.2983C32.1978 34.689 32.2368 34.9702 32.2837 35.1421C32.4556 35.9077 32.979 36.2905 33.854 36.2905C35.9478 36.228 37.0415 34.9858 37.1353 32.564C37.1353 32.064 37.0806 31.603 36.9712 31.1812C36.6118 29.9155 35.8462 29.2827 34.6743 29.2827C34.1587 29.2827 33.6196 29.3999 33.0571 29.6343L32.4946 29.1655L36.5962 24.4312H32.8462C32.5024 24.4312 32.2368 24.4468 32.0493 24.478C31.5806 24.5562 31.2368 24.8765 31.0181 25.439L30.5962 26.5874H30.0337L30.0806 22.439H39.2915V23.0249Z" fill="white"/>
</svg>
