<svg width="57" height="57" viewBox="0 0 57 57" fill="none" xmlns="http://www.w3.org/2000/svg">
<rect x="0.205505" y="0.0249023" width="56" height="56" rx="28" fill="#27AAE1"/>
<path d="M22.2056 22.2046C23.3462 22.2046 24.3462 22.478 25.2056 23.0249C26.8618 24.1187 27.6899 26.0327 27.6899 28.7671C27.6899 30.4077 27.3149 31.7983 26.5649 32.939C25.5493 34.4858 24.0571 35.2593 22.0884 35.2593C20.8228 35.2593 19.729 34.9155 18.8071 34.228C17.2759 33.0562 16.5103 31.2046 16.5103 28.6733C16.5103 27.0327 16.8931 25.6421 17.6587 24.5015C18.7056 22.9702 20.2212 22.2046 22.2056 22.2046ZM22.1587 34.6265C22.5962 34.6265 22.979 34.5171 23.3071 34.2983C24.2603 33.6421 24.7368 31.7593 24.7368 28.6499C24.7368 27.1812 24.6274 26.0015 24.4087 25.1108C24.0493 23.5952 23.2915 22.8374 22.1353 22.8374C21.7759 22.8374 21.4556 22.9077 21.1743 23.0483C20.0337 23.6108 19.4634 25.5171 19.4634 28.7671C19.4634 30.3765 19.5884 31.6343 19.8384 32.5405C20.2134 33.9312 20.9868 34.6265 22.1587 34.6265ZM39.8071 36.5952H32.4946V35.9624H35.1196V32.9858L28.9087 32.9624L28.7681 32.2593C29.2368 31.8843 29.6821 31.5015 30.104 31.1108C31.9946 29.314 33.3306 27.2827 34.1118 25.0171C34.5337 23.7983 34.7603 23.1421 34.7915 23.0483C35.104 22.439 35.5962 22.1343 36.2681 22.1343C36.4243 22.1343 36.5649 22.1499 36.6899 22.1812C37.4399 22.3218 37.8149 22.7671 37.8149 23.5171C37.7993 24.4546 36.9556 25.7749 35.2837 27.478C34.4087 28.353 32.5884 29.9468 29.8228 32.2593L35.1196 32.2827V29.4937H35.354C35.604 29.4937 35.8149 29.478 35.9868 29.4468C36.4399 29.353 36.7524 29.0171 36.9243 28.439L37.229 27.4546H37.7446V32.3062H39.8071V33.0093H37.7446V35.9624H39.2446C39.3384 35.9624 39.4243 35.9702 39.5024 35.9858C39.7056 36.0171 39.8071 36.2202 39.8071 36.5952Z" fill="white"/>
</svg>
