<svg width="52" height="46" viewBox="0 0 52 46" fill="none" xmlns="http://www.w3.org/2000/svg">
<rect width="52" height="46" rx="4" fill="#23255B"/>
<g clip-path="url(#clip0_2005_238)">
<path d="M17 24.0001H23V22.0001H17V12.8461C17 12.7592 17.0227 12.6738 17.0657 12.5984C17.1088 12.5229 17.1708 12.46 17.2456 12.4158C17.3204 12.3716 17.4054 12.3476 17.4923 12.3463C17.5791 12.3449 17.6649 12.3662 17.741 12.4081L36.203 22.5621C36.2814 22.6053 36.3468 22.6687 36.3923 22.7457C36.4378 22.8228 36.4618 22.9106 36.4618 23.0001C36.4618 23.0896 36.4378 23.1774 36.3923 23.2545C36.3468 23.3315 36.2814 23.3949 36.203 23.4381L17.741 33.5921C17.6649 33.634 17.5791 33.6553 17.4923 33.654C17.4054 33.6526 17.3204 33.6287 17.2456 33.5844C17.1708 33.5402 17.1088 33.4773 17.0657 33.4018C17.0227 33.3264 17 33.241 17 33.1541V24.0001Z" fill="white"/>
</g>
<defs>
<clipPath id="clip0_2005_238">
<rect width="24" height="24" fill="white" transform="translate(14 11)"/>
</clipPath>
</defs>
</svg>
